<svg version="1.1" id="Layer_1" xmlns="http://www.w3.org/2000/svg" xmlns:xlink="http://www.w3.org/1999/xlink" x="0px" y="0px"
	 width="100%" viewBox="0 0 1024 1024" enable-background="new 0 0 1024 1024" xml:space="preserve">
<path fill="#FEFEFE" opacity="1.000000" stroke="none" 
	d="
M682.000000,1025.000000 
	C454.666656,1025.000000 227.833328,1025.000000 1.000000,1025.000000 
	C1.000000,683.666687 1.000000,342.333344 1.000000,1.000000 
	C342.333344,1.000000 683.666687,1.000000 1025.000000,1.000000 
	C1025.000000,342.333344 1025.000000,683.666687 1025.000000,1025.000000 
	C910.833313,1025.000000 796.666687,1025.000000 682.000000,1025.000000 
M844.504211,615.538513 
	C844.324707,615.609131 844.145142,615.679810 843.080017,615.536621 
	C802.699341,615.468445 762.318665,615.397278 721.937988,615.345520 
	C720.622375,615.343872 719.306580,615.540344 717.091980,615.380859 
	C705.724915,615.475403 694.357849,615.569885 682.332458,615.407654 
	C681.178955,615.507996 680.025452,615.608337 678.125305,615.457214 
	C677.089355,615.537109 676.053467,615.617065 674.228333,615.432861 
	C653.169373,615.555664 632.110474,615.678467 610.296509,615.482544 
	C597.537781,615.498901 584.778992,615.515259 571.398438,615.110657 
	C568.275574,608.448425 565.152771,601.786194 562.672974,594.855713 
	C569.483215,585.944031 576.293457,577.032410 583.698730,567.806580 
	C609.190918,534.950378 634.709473,502.114563 660.163818,469.229034 
	C672.278381,453.577606 684.270691,437.831573 696.883057,421.800812 
	C703.394531,413.193817 709.906006,404.586823 716.968445,395.583282 
	C717.664734,394.445984 718.360962,393.308716 719.644775,392.076691 
	C719.744812,391.720673 719.844849,391.364655 720.225647,390.526184 
	C720.860840,389.854675 721.496033,389.183167 722.713196,388.126892 
	C722.917114,387.712646 723.121033,387.298401 723.740784,386.738403 
	C723.740784,386.738403 723.862305,386.314850 724.369995,385.982086 
	C763.566040,334.928986 802.769104,283.881256 841.926575,232.798615 
	C843.190063,231.150360 844.748840,229.194473 844.872620,227.297409 
	C845.464111,218.226532 845.607727,209.126450 845.699707,199.262863 
	C842.281128,198.851715 838.866577,198.131042 835.443237,198.086273 
	C824.281738,197.940262 813.117126,198.045059 801.953674,198.046188 
	C663.493896,198.060242 525.034119,198.061722 386.574371,198.164642 
	C383.715454,198.166779 380.857361,199.341171 377.321381,200.092133 
	C362.086517,214.337952 346.851654,228.583771 331.027649,243.100555 
	C326.795868,247.045654 322.544281,250.969696 318.335754,254.939423 
	C299.549500,272.659546 280.710266,290.324188 262.013306,308.138123 
	C237.286270,331.697327 212.674088,355.377106 187.223267,379.380768 
	C187.149796,384.467834 186.983170,389.556915 187.094421,394.639923 
	C187.112991,395.487823 188.339661,396.309296 189.828568,397.362610 
	C194.318359,397.480499 198.808151,397.699249 203.297958,397.700226 
	C239.239456,397.708130 275.181000,397.698456 311.122437,397.642151 
	C324.753937,397.620789 338.385254,397.463043 352.786102,397.620331 
	C353.850800,397.532867 354.915466,397.445374 356.879303,397.633514 
	C365.257233,397.584930 373.635193,397.536346 382.849701,397.694641 
	C384.560181,397.595490 386.270660,397.496307 388.822052,397.649872 
	C392.211700,397.548004 395.601349,397.446136 399.901764,397.562256 
	C415.294800,397.446564 430.687836,397.330872 446.985840,397.428589 
	C454.597229,397.458954 462.208649,397.489319 470.261322,398.155914 
	C471.155731,401.084167 472.050140,404.012390 472.421906,407.367126 
	C468.584015,413.569977 464.746124,419.772827 460.271820,426.185577 
	C444.180603,447.187042 428.002258,468.122467 412.017487,489.204681 
	C384.468231,525.539368 357.028564,561.957153 329.565674,598.357239 
	C319.445374,611.770996 309.389526,625.233521 298.805695,639.038635 
	C276.834412,668.095520 254.884323,697.168518 232.884613,726.203857 
	C217.212570,746.887939 201.431244,767.489258 185.825211,788.222778 
	C184.111832,790.499146 182.339828,793.339905 182.145584,796.030823 
	C181.668076,802.645691 182.095016,809.325745 182.025742,816.702209 
	C182.132355,817.172546 182.238968,817.642822 182.333420,819.018188 
	C182.333420,822.449707 182.333420,825.881287 182.333420,829.689880 
	C188.939774,829.689880 194.736725,829.689209 200.533691,829.690002 
	C316.634552,829.705200 432.735443,829.742126 548.836304,829.723450 
	C586.314209,829.717468 623.792542,829.619263 661.269409,829.375854 
	C664.196167,829.356812 667.113403,827.855408 670.684326,826.853027 
	C676.338196,821.505798 682.065186,816.233337 687.630981,810.795898 
	C699.799377,798.908142 711.885925,786.936646 724.629150,774.758728 
	C730.480286,768.955200 736.331421,763.151672 742.739990,757.132874 
	C742.970703,756.816589 743.201477,756.500366 744.002197,755.873901 
	C754.201355,745.963501 764.459167,736.112549 774.576599,726.119446 
	C780.216370,720.549072 785.622498,714.742188 791.746948,708.788696 
	C808.727661,692.237610 825.741882,675.720520 842.631836,659.077454 
	C844.142944,657.588379 845.743591,655.301331 845.783813,653.353638 
	C846.033447,641.247070 845.849426,629.131470 845.929077,616.420898 
	C845.632324,616.200745 845.335571,615.980591 844.504211,615.538513 
z"/>
<path fill="#E22927" opacity="1.000000" stroke="none" 
	d="
M562.029907,595.123962 
	C565.152771,601.786194 568.275574,608.448425 571.705811,615.679688 
	C572.574036,617.961121 572.978943,619.744568 573.721436,621.374207 
	C577.922180,630.594971 582.216003,639.773254 586.455811,648.976257 
	C601.882996,682.463196 617.302002,715.953857 632.722473,749.443909 
	C638.278748,761.511108 643.709167,773.638123 649.419434,785.632019 
	C654.770752,796.872009 660.416138,807.972046 665.967529,819.438721 
	C666.331055,820.488831 666.659180,821.234070 666.998474,822.224854 
	C667.009644,822.470398 667.035706,822.961487 667.147949,823.267944 
	C668.185120,824.730591 669.110107,825.886780 670.035034,827.042969 
	C667.113403,827.855408 664.196167,829.356812 661.269409,829.375854 
	C623.792542,829.619263 586.314209,829.717468 548.836304,829.723450 
	C432.735443,829.742126 316.634552,829.705200 200.533691,829.690002 
	C194.736725,829.689209 188.939774,829.689880 182.333420,829.689880 
	C182.333420,825.881287 182.333420,822.449707 182.516190,818.411621 
	C182.839081,817.521790 182.935028,817.224243 183.289093,816.781616 
	C201.279892,799.065430 218.972641,781.484314 236.655319,763.893127 
	C247.384308,753.219666 258.073669,742.506287 268.823700,731.854004 
	C285.583649,715.246521 302.380035,698.675781 319.491638,682.024292 
	C321.205078,680.783508 322.655396,679.677856 323.960022,678.421021 
	C334.136566,668.617798 344.262665,658.762146 354.447266,648.967346 
	C370.978821,633.068604 387.537720,617.198242 404.095062,601.326294 
	C419.930634,586.146240 435.827911,571.030334 451.607452,555.792297 
	C466.679504,541.237427 481.588409,526.513672 496.663513,511.961975 
	C502.986298,505.858704 509.552185,500.007294 516.010437,494.294006 
	C516.016724,494.715088 516.020142,494.883484 516.039307,495.345215 
	C516.371033,496.098572 516.687073,496.558594 517.002747,497.008270 
	C517.002441,496.997925 516.982544,496.992065 517.083496,497.224243 
	C517.457703,497.642120 517.730896,497.827850 518.003296,498.005554 
	C518.002441,497.997559 517.986267,497.996063 517.975342,498.389679 
	C520.943115,505.776398 523.815002,512.817322 526.922668,519.752563 
	C533.371948,534.145386 539.853333,548.525208 546.499695,562.827637 
	C551.533386,573.659607 556.843079,584.363220 562.029907,595.123962 
z"/>
<path fill="#FD6358" opacity="1.000000" stroke="none" 
	d="
M377.998901,199.968689 
	C380.857361,199.341171 383.715454,198.166779 386.574371,198.164642 
	C525.034119,198.061722 663.493896,198.060242 801.953674,198.046188 
	C813.117126,198.045059 824.281738,197.940262 835.443237,198.086273 
	C838.866577,198.131042 842.281128,198.851715 845.461548,199.664047 
	C841.525818,203.117432 837.745544,206.075546 834.144287,209.237518 
	C814.816223,226.207581 795.541687,243.238556 776.230225,260.227509 
	C766.264221,268.994995 756.204529,277.656738 746.291138,286.483124 
	C738.738098,293.208038 731.348877,300.116943 723.594238,307.099548 
	C721.120117,309.446655 718.938416,311.638214 716.455078,313.902191 
	C715.087097,314.930878 714.020752,315.887146 712.617188,316.920471 
	C709.555725,319.414185 706.830566,321.829865 704.107361,324.247681 
	C686.980835,339.453674 669.809387,354.609375 652.744141,369.883789 
	C640.864075,380.517212 629.150818,391.336731 617.326050,402.032196 
	C597.009521,420.408325 576.690613,438.782013 556.318542,457.096497 
	C547.311462,465.193848 538.172058,473.144012 528.901245,480.807190 
	C527.044556,479.966431 525.405457,479.345306 523.709717,479.015717 
	C516.385986,477.592194 514.779236,477.657135 515.886719,470.346466 
	C516.015991,469.493469 515.455139,468.462708 515.024292,467.610413 
	C512.922852,463.453094 510.756927,459.328369 508.139038,454.275757 
	C507.741547,454.029327 505.536499,453.413696 504.712799,451.995697 
	C502.977386,449.008179 501.965820,445.600159 500.436462,441.818970 
	C501.668701,441.564545 503.023743,441.226227 504.398468,441.017365 
	C505.766571,440.809479 507.154419,440.731598 508.533630,440.596741 
	C508.658722,440.204193 508.783783,439.811646 508.908844,439.419098 
	C505.648682,437.614075 502.562897,435.066406 499.071381,434.246460 
	C496.429413,433.626038 494.964569,432.962921 494.189087,430.459778 
	C492.555450,425.186554 490.776550,419.958221 489.158813,414.680359 
	C488.938660,413.962036 489.220825,413.045868 489.407990,412.253815 
	C490.599335,407.212189 489.686981,402.909943 485.698303,399.225647 
	C484.618164,398.227966 484.031189,396.035736 484.180939,394.484833 
	C484.741913,388.675354 482.943207,385.473053 477.298859,385.221802 
	C473.536407,385.054260 469.702606,386.488220 465.647308,386.950378 
	C455.427979,365.152008 445.499817,343.591095 435.487091,322.069519 
	C421.754303,292.552032 408.008148,263.040436 394.138977,233.586945 
	C391.768829,228.553543 388.755127,223.823151 386.019501,218.975006 
	C386.000275,218.997253 386.057861,218.985519 386.098389,218.658157 
	C386.080902,217.895615 386.022919,217.460434 385.937683,216.664307 
	C383.273254,210.858459 380.636078,205.413574 377.998901,199.968689 
z"/>
<path fill="#DC2624" opacity="1.000000" stroke="none" 
	d="
M716.756775,313.829773 
	C718.938416,311.638214 721.120117,309.446655 723.978943,307.155273 
	C725.772888,308.266815 727.111877,309.341248 727.959717,310.718140 
	C729.691040,313.529785 731.158020,316.504211 733.083313,320.056213 
	C735.555298,317.745819 737.244202,316.416168 738.623535,314.819153 
	C740.640625,312.483734 742.817078,312.771240 744.708679,314.521210 
	C747.185608,316.812714 749.318298,319.476318 752.535339,323.007568 
	C746.830750,322.648468 742.186707,322.356140 737.680542,322.072510 
	C736.501404,324.381866 735.277039,327.076477 733.789978,329.617371 
	C731.919739,332.812836 729.866150,335.903320 727.825378,338.995270 
	C727.103821,340.088501 726.378296,341.628265 725.326660,341.977844 
	C720.402283,343.614929 720.641846,346.943787 721.357605,351.110413 
	C721.707764,353.148804 720.526306,355.505890 719.827026,357.649933 
	C719.339844,359.143555 718.494080,360.520203 717.823547,361.917694 
	C724.628174,365.632263 724.833252,366.250305 721.779602,372.480652 
	C721.266846,373.526733 720.637512,374.543304 720.308228,375.646973 
	C718.750854,380.867157 720.106628,384.829742 723.862305,386.314850 
	C723.862305,386.314850 723.740784,386.738403 723.224487,386.994385 
	C722.515930,387.670807 722.323608,388.091278 722.131226,388.511688 
	C721.496033,389.183167 720.860840,389.854675 719.868103,390.901306 
	C719.359436,391.574738 719.208313,391.873077 719.057251,392.171387 
	C718.360962,393.308716 717.664734,394.445984 716.540222,395.378540 
	C712.560059,390.920563 711.395264,390.780914 708.419556,395.063507 
	C706.166199,398.306519 704.427551,401.907196 702.402039,405.449799 
	C699.277344,404.580719 695.540283,403.541321 691.698059,402.472717 
	C691.139893,404.679871 690.877441,405.631653 690.659485,406.593536 
	C689.102905,413.462311 691.321045,419.540894 696.318420,422.128418 
	C684.270691,437.831573 672.278381,453.577606 660.163818,469.229034 
	C634.709473,502.114563 609.190918,534.950378 583.188354,567.689453 
	C581.050537,566.485718 579.178101,565.638367 577.840393,564.268799 
	C573.443359,559.766663 569.134399,555.168091 564.985413,550.436523 
	C557.134705,541.483643 549.549683,532.295410 541.609375,523.424194 
	C533.894775,514.805115 525.873108,506.460968 517.986267,497.996063 
	C517.986267,497.996063 518.002441,497.997559 517.900879,497.775146 
	C517.526978,497.365814 517.254761,497.178955 516.982544,496.992065 
	C516.982544,496.992065 517.002441,496.997925 516.987427,496.713226 
	C516.656128,495.969635 516.339844,495.510773 516.023560,495.051910 
	C516.020142,494.883484 516.016724,494.715088 516.165039,493.993408 
	C520.575439,489.347107 524.834106,485.254028 529.092773,481.160950 
	C538.172058,473.144012 547.311462,465.193848 556.318542,457.096497 
	C576.690613,438.782013 597.009521,420.408325 617.326050,402.032196 
	C629.150818,391.336731 640.864075,380.517212 652.744141,369.883789 
	C669.809387,354.609375 686.980835,339.453674 704.107361,324.247681 
	C706.830566,321.829865 709.555725,319.414185 712.661499,317.279114 
	C714.091858,318.107269 715.140747,318.653839 716.189575,319.200378 
	C716.378601,317.410187 716.567688,315.619965 716.756775,313.829773 
z"/>
<path fill="#FD665B" opacity="1.000000" stroke="none" 
	d="
M528.901245,480.807190 
	C524.834106,485.254028 520.575439,489.347107 516.162109,493.740784 
	C509.552185,500.007294 502.986298,505.858704 496.663513,511.961975 
	C481.588409,526.513672 466.679504,541.237427 451.607452,555.792297 
	C435.827911,571.030334 419.930634,586.146240 404.095062,601.326294 
	C387.537720,617.198242 370.978821,633.068604 354.447266,648.967346 
	C344.262665,658.762146 334.136566,668.617798 323.960022,678.421021 
	C322.655396,679.677856 321.205078,680.783508 319.146729,681.870361 
	C317.040100,681.101379 315.608978,680.421204 313.582001,679.457825 
	C315.327484,675.215271 316.914703,671.357361 318.758545,666.875732 
	C315.548431,663.625122 311.975159,660.149475 308.589661,656.499573 
	C307.439697,655.259827 306.664001,653.630798 305.889221,652.093018 
	C303.647430,647.643494 301.492981,643.150024 299.304260,638.673767 
	C309.389526,625.233521 319.445374,611.770996 329.565674,598.357239 
	C357.028564,561.957153 384.468231,525.539368 412.017487,489.204681 
	C428.002258,468.122467 444.180603,447.187042 460.946869,426.089203 
	C462.426727,426.543152 463.439331,426.933258 464.005402,427.667572 
	C473.814819,440.392151 483.563385,453.163574 493.337982,465.915039 
	C499.621002,474.111603 505.924622,482.292358 512.219055,490.480194 
	C512.479004,490.323853 512.738953,490.167542 512.998962,490.011200 
	C509.001862,481.007324 505.004791,472.003448 501.383087,462.919891 
	C502.255676,461.167389 502.752869,459.494598 503.394531,457.335693 
	C500.942352,457.180450 499.497345,457.088989 497.889404,456.685883 
	C492.393188,444.805481 487.222198,433.157745 481.652710,421.703827 
	C479.162323,416.582275 475.871887,411.849701 472.944519,406.940613 
	C472.050140,404.012390 471.155731,401.084167 469.993469,397.513611 
	C468.450653,393.649353 467.175690,390.427399 465.900757,387.205444 
	C469.702606,386.488220 473.536407,385.054260 477.298859,385.221802 
	C482.943207,385.473053 484.741913,388.675354 484.180939,394.484833 
	C484.031189,396.035736 484.618164,398.227966 485.698303,399.225647 
	C489.686981,402.909943 490.599335,407.212189 489.407990,412.253815 
	C489.220825,413.045868 488.938660,413.962036 489.158813,414.680359 
	C490.776550,419.958221 492.555450,425.186554 494.189087,430.459778 
	C494.964569,432.962921 496.429413,433.626038 499.071381,434.246460 
	C502.562897,435.066406 505.648682,437.614075 508.908844,439.419098 
	C508.783783,439.811646 508.658722,440.204193 508.533630,440.596741 
	C507.154419,440.731598 505.766571,440.809479 504.398468,441.017365 
	C503.023743,441.226227 501.668701,441.564545 500.436462,441.818970 
	C501.965820,445.600159 502.977386,449.008179 504.712799,451.995697 
	C505.536499,453.413696 507.741547,454.029327 508.139038,454.275757 
	C510.756927,459.328369 512.922852,463.453094 515.024292,467.610413 
	C515.455139,468.462708 516.015991,469.493469 515.886719,470.346466 
	C514.779236,477.657135 516.385986,477.592194 523.709717,479.015717 
	C525.405457,479.345306 527.044556,479.966431 528.901245,480.807190 
M514.482178,492.589478 
	C514.482178,492.589478 514.414856,492.477386 514.482178,492.589478 
z"/>
<path fill="#EA3432" opacity="1.000000" stroke="none" 
	d="
M352.016632,397.367493 
	C338.385254,397.463043 324.753937,397.620789 311.122437,397.642151 
	C275.181000,397.698456 239.239456,397.708130 203.297958,397.700226 
	C198.808151,397.699249 194.318359,397.480499 189.417572,396.774658 
	C188.675247,390.459473 188.343887,384.732269 188.012543,379.005035 
	C212.674088,355.377106 237.286270,331.697327 262.013306,308.138123 
	C280.710266,290.324188 299.549500,272.659546 318.335754,254.939423 
	C322.544281,250.969696 326.795868,247.045654 331.661865,243.196442 
	C331.357758,248.098892 332.016388,254.906952 329.099731,257.234222 
	C324.919434,260.569794 325.513855,263.293121 326.494873,266.777893 
	C327.647095,270.870880 329.267151,274.841309 330.834229,278.805603 
	C332.195618,282.249573 333.310577,285.450531 330.738525,288.994019 
	C328.388885,292.231079 326.577057,295.858551 324.219971,299.833862 
	C325.467255,300.407959 327.723480,301.971375 328.162109,301.566345 
	C332.171051,297.864594 336.371277,301.606750 340.290619,300.914490 
	C348.187958,299.519684 353.538635,305.667084 360.405182,307.464478 
	C366.043060,308.940277 366.334351,314.527283 363.368561,321.422455 
	C362.745514,322.871063 362.394470,325.267334 363.164490,326.262695 
	C364.022491,327.371765 366.311188,327.806427 367.963287,327.776276 
	C371.140015,327.718353 380.527679,334.613434 379.710876,337.565552 
	C378.397858,342.311371 381.229645,344.420349 383.514587,347.385315 
	C385.092712,349.433136 386.319061,352.032257 386.844299,354.563141 
	C389.205078,365.939026 391.161194,377.398926 393.529724,388.773041 
	C393.881287,390.461273 395.712982,391.815308 396.752930,393.394409 
	C397.583374,394.655457 398.251068,396.023651 398.990997,397.344299 
	C395.601349,397.446136 392.211700,397.548004 388.273682,397.220978 
	C385.821259,397.023987 383.917175,397.255890 382.013123,397.487762 
	C373.635193,397.536346 365.257233,397.584930 356.322815,397.224609 
	C354.516418,396.999634 353.266541,397.183563 352.016632,397.367493 
z"/>
<path fill="#C91E1B" opacity="1.000000" stroke="none" 
	d="
M666.987305,821.979248 
	C666.659180,821.234070 666.331055,820.488831 666.250977,819.178345 
	C666.321716,816.866150 666.397278,815.048035 665.928711,813.383118 
	C660.010193,792.351807 653.954529,771.359192 648.049866,750.324097 
	C638.920532,717.800842 629.835266,685.265076 620.826050,652.708374 
	C617.432068,640.443665 614.301941,628.105835 611.051514,615.801331 
	C632.110474,615.678467 653.169373,615.555664 674.626587,615.979736 
	C675.493530,617.301270 675.789368,618.520142 676.458313,618.780579 
	C681.942017,620.915161 687.366638,623.414124 693.055786,624.761597 
	C703.013367,627.120117 707.649536,634.733032 712.199036,642.602478 
	C712.704163,643.476196 712.697083,644.835876 712.502869,645.892090 
	C711.536011,651.149109 712.955261,655.325928 717.562439,658.307495 
	C718.471252,658.895691 719.719727,659.796814 719.817017,660.665039 
	C720.437012,666.198486 720.778503,671.763123 721.181091,676.924988 
	C717.778625,677.383484 715.162292,677.507019 712.707703,678.201721 
	C711.937988,678.419617 711.243408,680.166382 711.220215,681.228699 
	C711.208496,681.764832 712.772156,682.812561 713.625977,682.815186 
	C720.688782,682.836670 724.398376,688.539307 720.574646,694.457886 
	C717.841675,698.688110 720.036194,700.162109 723.215576,701.542419 
	C728.871582,703.997803 729.544189,707.898376 725.193176,712.332397 
	C724.081238,713.465637 723.000916,715.422729 723.158081,716.864929 
	C723.700317,721.839783 724.795898,726.754395 725.680786,731.691956 
	C726.311218,731.884949 726.941650,732.077881 727.572083,732.270874 
	C726.826477,732.648987 725.860168,732.844238 725.370911,733.434692 
	C722.166077,737.302734 722.799377,742.242981 726.815979,744.920105 
	C730.822144,747.590332 728.723877,749.853394 726.398071,752.086975 
	C720.051941,758.181824 718.370056,768.191833 724.005859,774.999390 
	C711.885925,786.936646 699.799377,798.908142 687.630981,810.795898 
	C682.065186,816.233337 676.338196,821.505798 670.359680,826.947998 
	C669.110107,825.886780 668.185120,824.730591 667.311157,823.181152 
	C667.237244,822.518311 667.112305,822.248779 666.987305,821.979248 
z"/>
<path fill="#E52D2C" opacity="1.000000" stroke="none" 
	d="
M399.446381,397.453278 
	C398.251068,396.023651 397.583374,394.655457 396.752930,393.394409 
	C395.712982,391.815308 393.881287,390.461273 393.529724,388.773041 
	C391.161194,377.398926 389.205078,365.939026 386.844299,354.563141 
	C386.319061,352.032257 385.092712,349.433136 383.514587,347.385315 
	C381.229645,344.420349 378.397858,342.311371 379.710876,337.565552 
	C380.527679,334.613434 371.140015,327.718353 367.963287,327.776276 
	C366.311188,327.806427 364.022491,327.371765 363.164490,326.262695 
	C362.394470,325.267334 362.745514,322.871063 363.368561,321.422455 
	C366.334351,314.527283 366.043060,308.940277 360.405182,307.464478 
	C353.538635,305.667084 348.187958,299.519684 340.290619,300.914490 
	C336.371277,301.606750 332.171051,297.864594 328.162109,301.566345 
	C327.723480,301.971375 325.467255,300.407959 324.219971,299.833862 
	C326.577057,295.858551 328.388885,292.231079 330.738525,288.994019 
	C333.310577,285.450531 332.195618,282.249573 330.834229,278.805603 
	C329.267151,274.841309 327.647095,270.870880 326.494873,266.777893 
	C325.513855,263.293121 324.919434,260.569794 329.099731,257.234222 
	C332.016388,254.906952 331.357758,248.098892 331.956451,243.060944 
	C346.851654,228.583771 362.086517,214.337952 377.660156,200.030396 
	C380.636078,205.413574 383.273254,210.858459 385.712280,216.808182 
	C385.695374,217.870514 385.876617,218.428024 386.057861,218.985519 
	C386.057861,218.985519 386.000275,218.997253 386.008301,219.369446 
	C386.136902,220.390564 386.175842,221.067795 386.389679,221.684387 
	C397.037598,252.387207 407.726349,283.075897 418.353394,313.785950 
	C426.540588,337.445312 434.693390,361.116760 442.757904,384.818085 
	C444.132996,388.859467 444.986450,393.078308 446.080872,397.215149 
	C430.687836,397.330872 415.294800,397.446564 399.446381,397.453278 
z"/>
<path fill="#D2211E" opacity="1.000000" stroke="none" 
	d="
M724.317505,774.879028 
	C718.370056,768.191833 720.051941,758.181824 726.398071,752.086975 
	C728.723877,749.853394 730.822144,747.590332 726.815979,744.920105 
	C722.799377,742.242981 722.166077,737.302734 725.370911,733.434692 
	C725.860168,732.844238 726.826477,732.648987 727.572083,732.270874 
	C726.941650,732.077881 726.311218,731.884949 725.680786,731.691956 
	C724.795898,726.754395 723.700317,721.839783 723.158081,716.864929 
	C723.000916,715.422729 724.081238,713.465637 725.193176,712.332397 
	C729.544189,707.898376 728.871582,703.997803 723.215576,701.542419 
	C720.036194,700.162109 717.841675,698.688110 720.574646,694.457886 
	C724.398376,688.539307 720.688782,682.836670 713.625977,682.815186 
	C712.772156,682.812561 711.208496,681.764832 711.220215,681.228699 
	C711.243408,680.166382 711.937988,678.419617 712.707703,678.201721 
	C715.162292,677.507019 717.778625,677.383484 721.181091,676.924988 
	C720.778503,671.763123 720.437012,666.198486 719.817017,660.665039 
	C719.719727,659.796814 718.471252,658.895691 717.562439,658.307495 
	C712.955261,655.325928 711.536011,651.149109 712.502869,645.892090 
	C712.697083,644.835876 712.704163,643.476196 712.199036,642.602478 
	C707.649536,634.733032 703.013367,627.120117 693.055786,624.761597 
	C687.366638,623.414124 681.942017,620.915161 676.458313,618.780579 
	C675.789368,618.520142 675.493530,617.301270 675.021179,616.111816 
	C676.053467,615.617065 677.089355,615.537109 678.673889,615.870605 
	C680.478577,616.077515 681.734680,615.870972 682.990784,615.664429 
	C694.357849,615.569885 705.724915,615.475403 717.669617,615.811401 
	C720.913574,617.359802 723.521545,618.653320 726.257568,619.561157 
	C733.261658,621.885437 741.548767,621.375427 746.114990,628.980469 
	C746.727173,630.000183 748.301575,631.107727 749.390747,631.068726 
	C757.149963,630.790344 763.480591,634.587646 769.900757,638.024231 
	C773.402649,639.898804 777.002136,641.909973 779.803162,644.635132 
	C781.129028,645.925049 781.143860,649.073608 780.955750,651.313110 
	C780.385193,658.103943 776.471252,663.601746 773.435913,669.446411 
	C771.914978,672.374878 770.615356,675.492249 769.793945,678.673462 
	C769.467529,679.937256 770.338074,682.573364 771.290710,682.935547 
	C778.657715,685.736633 779.588318,692.463501 780.866638,698.642761 
	C781.946228,703.860779 785.404419,708.056396 791.133850,709.041809 
	C785.622498,714.742188 780.216370,720.549072 774.576599,726.119446 
	C764.459167,736.112549 754.201355,745.963501 743.408569,756.094238 
	C742.604065,756.659058 742.393250,757.003540 742.182495,757.348083 
	C736.331421,763.151672 730.480286,768.955200 724.317505,774.879028 
z"/>
<path fill="#DF2826" opacity="1.000000" stroke="none" 
	d="
M724.116150,386.148468 
	C720.106628,384.829742 718.750854,380.867157 720.308228,375.646973 
	C720.637512,374.543304 721.266846,373.526733 721.779602,372.480652 
	C724.833252,366.250305 724.628174,365.632263 717.823547,361.917694 
	C718.494080,360.520203 719.339844,359.143555 719.827026,357.649933 
	C720.526306,355.505890 721.707764,353.148804 721.357605,351.110413 
	C720.641846,346.943787 720.402283,343.614929 725.326660,341.977844 
	C726.378296,341.628265 727.103821,340.088501 727.825378,338.995270 
	C729.866150,335.903320 731.919739,332.812836 733.789978,329.617371 
	C735.277039,327.076477 736.501404,324.381866 737.680542,322.072510 
	C742.186707,322.356140 746.830750,322.648468 752.535339,323.007568 
	C749.318298,319.476318 747.185608,316.812714 744.708679,314.521210 
	C742.817078,312.771240 740.640625,312.483734 738.623535,314.819153 
	C737.244202,316.416168 735.555298,317.745819 733.083313,320.056213 
	C731.158020,316.504211 729.691040,313.529785 727.959717,310.718140 
	C727.111877,309.341248 725.772888,308.266815 724.271484,306.999756 
	C731.348877,300.116943 738.738098,293.208038 746.291138,286.483124 
	C756.204529,277.656738 766.264221,268.994995 776.230225,260.227509 
	C795.541687,243.238556 814.816223,226.207581 834.144287,209.237518 
	C837.745544,206.075546 841.525818,203.117432 845.567017,200.050995 
	C845.607727,209.126450 845.464111,218.226532 844.872620,227.297409 
	C844.748840,229.194473 843.190063,231.150360 841.926575,232.798615 
	C802.769104,283.881256 763.566040,334.928986 724.116150,386.148468 
z"/>
<path fill="#FD6B5F" opacity="1.000000" stroke="none" 
	d="
M299.054993,638.856201 
	C301.492981,643.150024 303.647430,647.643494 305.889221,652.093018 
	C306.664001,653.630798 307.439697,655.259827 308.589661,656.499573 
	C311.975159,660.149475 315.548431,663.625122 318.758545,666.875732 
	C316.914703,671.357361 315.327484,675.215271 313.582001,679.457825 
	C315.608978,680.421204 317.040100,681.101379 318.816101,681.935547 
	C302.380035,698.675781 285.583649,715.246521 268.823700,731.854004 
	C258.073669,742.506287 247.384308,753.219666 236.655319,763.893127 
	C218.972641,781.484314 201.279892,799.065430 183.193970,816.591797 
	C182.637177,816.286743 182.424393,816.102356 182.158173,815.979614 
	C182.095016,809.325745 181.668076,802.645691 182.145584,796.030823 
	C182.339828,793.339905 184.111832,790.499146 185.825211,788.222778 
	C201.431244,767.489258 217.212570,746.887939 232.884613,726.203857 
	C254.884323,697.168518 276.834412,668.095520 299.054993,638.856201 
z"/>
<path fill="#D92422" opacity="1.000000" stroke="none" 
	d="
M791.440430,708.915283 
	C785.404419,708.056396 781.946228,703.860779 780.866638,698.642761 
	C779.588318,692.463501 778.657715,685.736633 771.290710,682.935547 
	C770.338074,682.573364 769.467529,679.937256 769.793945,678.673462 
	C770.615356,675.492249 771.914978,672.374878 773.435913,669.446411 
	C776.471252,663.601746 780.385193,658.103943 780.955750,651.313110 
	C781.143860,649.073608 781.129028,645.925049 779.803162,644.635132 
	C777.002136,641.909973 773.402649,639.898804 769.900757,638.024231 
	C763.480591,634.587646 757.149963,630.790344 749.390747,631.068726 
	C748.301575,631.107727 746.727173,630.000183 746.114990,628.980469 
	C741.548767,621.375427 733.261658,621.885437 726.257568,619.561157 
	C723.521545,618.653320 720.913574,617.359802 718.119019,615.943176 
	C719.306580,615.540344 720.622375,615.343872 721.937988,615.345520 
	C762.318665,615.397278 802.699341,615.468445 843.618896,615.901123 
	C844.424255,616.507751 844.690674,616.749878 845.170044,617.000610 
	C845.383057,617.009155 845.809326,617.018921 845.809326,617.018921 
	C845.849426,629.131470 846.033447,641.247070 845.783813,653.353638 
	C845.743591,655.301331 844.142944,657.588379 842.631836,659.077454 
	C825.741882,675.720520 808.727661,692.237610 791.440430,708.915283 
z"/>
<path fill="#AE1513" opacity="1.000000" stroke="none" 
	d="
M610.674011,615.641968 
	C614.301941,628.105835 617.432068,640.443665 620.826050,652.708374 
	C629.835266,685.265076 638.920532,717.800842 648.049866,750.324097 
	C653.954529,771.359192 660.010193,792.351807 665.928711,813.383118 
	C666.397278,815.048035 666.321716,816.866150 666.215576,818.873413 
	C660.416138,807.972046 654.770752,796.872009 649.419434,785.632019 
	C643.709167,773.638123 638.278748,761.511108 632.722473,749.443909 
	C617.302002,715.953857 601.882996,682.463196 586.455811,648.976257 
	C582.216003,639.773254 577.922180,630.594971 573.721436,621.374207 
	C572.978943,619.744568 572.574036,617.961121 572.016724,615.890137 
	C584.778992,615.515259 597.537781,615.498901 610.674011,615.641968 
z"/>
<path fill="#BD1B18" opacity="1.000000" stroke="none" 
	d="
M446.533356,397.321899 
	C444.986450,393.078308 444.132996,388.859467 442.757904,384.818085 
	C434.693390,361.116760 426.540588,337.445312 418.353394,313.785950 
	C407.726349,283.075897 397.037598,252.387207 386.389679,221.684387 
	C386.175842,221.067795 386.136902,220.390564 386.027527,219.347198 
	C388.755127,223.823151 391.768829,228.553543 394.138977,233.586945 
	C408.008148,263.040436 421.754303,292.552032 435.487091,322.069519 
	C445.499817,343.591095 455.427979,365.152008 465.647308,386.950378 
	C467.175690,390.427399 468.450653,393.649353 469.772827,397.195496 
	C462.208649,397.489319 454.597229,397.458954 446.533356,397.321899 
z"/>
<path fill="#B41815" opacity="1.000000" stroke="none" 
	d="
M517.975342,498.389679 
	C525.873108,506.460968 533.894775,514.805115 541.609375,523.424194 
	C549.549683,532.295410 557.134705,541.483643 564.985413,550.436523 
	C569.134399,555.168091 573.443359,559.766663 577.840393,564.268799 
	C579.178101,565.638367 581.050537,566.485718 582.890869,567.846497 
	C576.293457,577.032410 569.483215,585.944031 562.351440,594.989868 
	C556.843079,584.363220 551.533386,573.659607 546.499695,562.827637 
	C539.853333,548.525208 533.371948,534.145386 526.922668,519.752563 
	C523.815002,512.817322 520.943115,505.776398 517.975342,498.389679 
z"/>
<path fill="#E52D2C" opacity="1.000000" stroke="none" 
	d="
M472.683228,407.153870 
	C475.871887,411.849701 479.162323,416.582275 481.652710,421.703827 
	C487.222198,433.157745 492.393188,444.805481 497.998413,457.001343 
	C499.182770,459.418823 500.095245,461.209198 501.007721,462.999573 
	C505.004791,472.003448 509.001862,481.007324 512.998962,490.011200 
	C512.738953,490.167542 512.479004,490.323853 512.219055,490.480194 
	C505.924622,482.292358 499.621002,474.111603 493.337982,465.915039 
	C483.563385,453.163574 473.814819,440.392151 464.005402,427.667572 
	C463.439331,426.933258 462.426727,426.543152 461.265076,425.984253 
	C464.746124,419.772827 468.584015,413.569977 472.683228,407.153870 
z"/>
<path fill="#DF2826" opacity="1.000000" stroke="none" 
	d="
M696.600708,421.964630 
	C691.321045,419.540894 689.102905,413.462311 690.659485,406.593536 
	C690.877441,405.631653 691.139893,404.679871 691.698059,402.472717 
	C695.540283,403.541321 699.277344,404.580719 702.402039,405.449799 
	C704.427551,401.907196 706.166199,398.306519 708.419556,395.063507 
	C711.395264,390.780914 712.560059,390.920563 716.264771,395.576843 
	C709.906006,404.586823 703.394531,413.193817 696.600708,421.964630 
z"/>
<path fill="#E52D2C" opacity="1.000000" stroke="none" 
	d="
M187.617889,379.192902 
	C188.343887,384.732269 188.675247,390.459473 189.007324,396.664856 
	C188.339661,396.309296 187.112991,395.487823 187.094421,394.639923 
	C186.983170,389.556915 187.149796,384.467834 187.617889,379.192902 
z"/>
<path fill="#E52D2C" opacity="1.000000" stroke="none" 
	d="
M382.431396,397.591187 
	C383.917175,397.255890 385.821259,397.023987 387.853210,397.094604 
	C386.270660,397.496307 384.560181,397.595490 382.431396,397.591187 
z"/>
<path fill="#E52D2C" opacity="1.000000" stroke="none" 
	d="
M352.401367,397.493896 
	C353.266541,397.183563 354.516418,396.999634 355.873230,397.086792 
	C354.915466,397.445374 353.850800,397.532867 352.401367,397.493896 
z"/>
<path fill="#C91E1B" opacity="1.000000" stroke="none" 
	d="
M682.661621,615.536072 
	C681.734680,615.870972 680.478577,616.077515 679.047241,615.996338 
	C680.025452,615.608337 681.178955,615.507996 682.661621,615.536072 
z"/>
<path fill="#EB807E" opacity="1.000000" stroke="none" 
	d="
M182.091965,816.340942 
	C182.424393,816.102356 182.637177,816.286743 182.891663,816.722534 
	C182.935028,817.224243 182.839081,817.521790 182.522263,817.959106 
	C182.238968,817.642822 182.132355,817.172546 182.091965,816.340942 
z"/>
<path fill="#EA3432" opacity="1.000000" stroke="none" 
	d="
M742.461243,757.240479 
	C742.393250,757.003540 742.604065,756.659058 743.123535,756.249390 
	C743.201477,756.500366 742.970703,756.816589 742.461243,757.240479 
z"/>
<path fill="#EA3432" opacity="1.000000" stroke="none" 
	d="
M845.869202,616.719910 
	C845.809326,617.018921 845.383057,617.009155 845.189697,616.692688 
	C845.010437,616.171021 845.024597,615.965759 845.038818,615.760437 
	C845.335571,615.980591 845.632324,616.200745 845.869202,616.719910 
z"/>
<path fill="#D2211E" opacity="1.000000" stroke="none" 
	d="
M844.771484,615.649475 
	C845.024597,615.965759 845.010437,616.171021 844.976685,616.684082 
	C844.690674,616.749878 844.424255,616.507751 844.061768,616.008057 
	C844.145142,615.679810 844.324707,615.609131 844.771484,615.649475 
z"/>
<path fill="#DF2826" opacity="1.000000" stroke="none" 
	d="
M722.422241,388.319305 
	C722.323608,388.091278 722.515930,387.670807 723.016602,387.067261 
	C723.121033,387.298401 722.917114,387.712646 722.422241,388.319305 
z"/>
<path fill="#DF2826" opacity="1.000000" stroke="none" 
	d="
M719.350952,392.124023 
	C719.208313,391.873077 719.359436,391.574738 719.727722,391.142517 
	C719.844849,391.364655 719.744812,391.720673 719.350952,392.124023 
z"/>
<path fill="#B41815" opacity="1.000000" stroke="none" 
	d="
M516.039307,495.345215 
	C516.339844,495.510773 516.656128,495.969635 516.987732,496.723572 
	C516.687073,496.558594 516.371033,496.098572 516.039307,495.345215 
z"/>
<path fill="#AE1513" opacity="1.000000" stroke="none" 
	d="
M666.998474,822.224854 
	C667.112305,822.248779 667.237244,822.518311 667.198975,822.874634 
	C667.035706,822.961487 667.009644,822.470398 666.998474,822.224854 
z"/>
<path fill="#B41815" opacity="1.000000" stroke="none" 
	d="
M517.083496,497.224243 
	C517.254761,497.178955 517.526978,497.365814 517.901672,497.783142 
	C517.730896,497.827850 517.457703,497.642120 517.083496,497.224243 
z"/>
<path fill="#DF2826" opacity="1.000000" stroke="none" 
	d="
M716.455078,313.902191 
	C716.567688,315.619965 716.378601,317.410187 716.189575,319.200378 
	C715.140747,318.653839 714.091858,318.107269 712.998657,317.202057 
	C714.020752,315.887146 715.087097,314.930878 716.455078,313.902191 
z"/>
<path fill="#BD1B18" opacity="1.000000" stroke="none" 
	d="
M386.098389,218.658157 
	C385.876617,218.428024 385.695374,217.870514 385.739563,217.169128 
	C386.022919,217.460434 386.080902,217.895615 386.098389,218.658157 
z"/>
<path fill="#FD6358" opacity="1.000000" stroke="none" 
	d="
M501.383087,462.919891 
	C500.095245,461.209198 499.182770,459.418823 498.161316,457.312988 
	C499.497345,457.088989 500.942352,457.180450 503.394531,457.335693 
	C502.752869,459.494598 502.255676,461.167389 501.383087,462.919891 
z"/>
<path fill="#FD6358" opacity="1.000000" stroke="none" 
	d="
M514.448486,492.533447 
	C514.414856,492.477386 514.482178,492.589478 514.448486,492.533447 
z"/>
</svg>